<?xml version="1.0" encoding="UTF-8"?>
<svg id="b" data-name="Layer 2" xmlns="http://www.w3.org/2000/svg" viewBox="0 0 87.11 84.69">
  <defs>
    <style>
      .d {
        font-family: LEMONMILK-Bold, 'LEMON MILK';
        font-size: 60px;
        font-weight: 700;
      }
    </style>
  </defs>
  <g id="c" data-name="Layer 1">
    <g>
      <path d="M0,35.8s17.74-1.69,26.54-16.42c0,0,8.77-12.34,20.57-17.7l.91-.35c1.79-.69,6.36-1.77,13.72-1.14,9.8,.84,13.84,3.53,25.38-.16-1.87,1.04-3.44,2.25-5.31,3.28-1.57,.87-3.51,1.9-5.21,2.45-2.57,.83-5.47,1.15-8.16,1.1-.85-.02-1.7-.08-2.53-.21-4.72-.73-8.33,.42-9.05,.65-2.04,.65-10.82,3.44-13.99,8.43,0,0,9.21-8.49,18.26-5.03,0,0-11.22,2.2-15.93,12.34-.98,2.12-2.41,4.01-4.13,5.58-1.59,1.45-3.4,2.63-5.32,3.59-1.69,.85-3.46,1.52-5.26,2.08-1.31,.4-2.64,.73-3.97,1.04-.28,.06-5.88,1.12-11.92,1.35-5.09,.2-10.54-.38-13.01-.7-.53-.07-1.05-.14-1.58-.2Z"/>
      <text class="d" transform="translate(16.67 66.58)"><tspan x="0" y="0">O</tspan></text>
    </g>
  </g>
</svg>