<?xml version="1.0" encoding="UTF-8"?>
<svg id="b" data-name="Layer 2" xmlns="http://www.w3.org/2000/svg" viewBox="0 0 81.28 78.2">
  <defs>
    <style>
      .d {
        fill: #fff;
      }
    </style>
  </defs>
  <g id="c" data-name="Layer 1">
    <g>
      <path class="d" d="M0,34.66s16.67-1.41,24.65-15.89c0,0,8-12.11,19-17.25l.85-.34c1.67-.66,5.95-1.66,12.89-.93,9.25,.98,13.11,3.7,23.9,.22-1.74,1-3.19,2.18-4.93,3.18-1.46,.84-3.26,1.83-4.85,2.35-2.41,.78-5.13,1.06-7.66,.97-.8-.03-1.6-.1-2.39-.25-4.46-.79-7.83,.29-8.51,.51-1.91,.62-10.12,3.25-13,8.16,0,0,8.49-8.29,17.09-4.71,0,0-10.52,2.01-14.74,12-.88,2.09-2.19,3.94-3.78,5.48-1.46,1.41-3.15,2.56-4.93,3.48-1.57,.81-3.23,1.46-4.91,1.98-1.22,.38-2.47,.69-3.72,.97-.26,.06-5.51,1.02-11.2,1.16-4.79,.12-9.93-.54-12.27-.89-.5-.07-1-.15-1.49-.22Z"/>
      <path class="d" d="M16.04,53.44c0-14.18,11.25-24.93,25.93-24.93s25.93,10.75,25.93,24.93-11.25,24.76-25.96,24.76-25.9-10.69-25.9-24.76Zm39.17-.09c0-7.29-5.74-12.92-13.24-12.92s-13.24,5.62-13.24,12.92,5.74,12.86,13.24,12.86,13.24-5.6,13.24-12.86Z"/>
    </g>
  </g>
</svg>