<?xml version="1.0" encoding="UTF-8"?>
<svg id="b" data-name="Layer 2" xmlns="http://www.w3.org/2000/svg" viewBox="0 0 207.51 63.21">
  <defs>
    <style>
      .d {
        fill: #fff;
      }
    </style>
  </defs>
  <g id="c" data-name="Layer 1">
    <g>
      <g>
        <path class="d" d="M2.53,.44h3.2V28.78H2.53V.44Z"/>
        <path class="d" d="M34.49,.37V29.21h-.16L14.91,7.65V28.81h-3.2V0h.18L31.29,21.55V.37h3.2Z"/>
        <path class="d" d="M67.08,15.79c0,7.95-6.12,13.38-13.43,13.38-8.14,0-14.68-6.54-14.68-14.54S45.53,.05,53.53,.05c3.48,.02,7.72,1.78,10.27,4.25l-1.79,2.65c-2.2-2.18-5.64-3.71-8.49-3.71-5.98,0-11.29,4.96-11.29,11.37s5.01,11.3,11.55,11.3c5.54,0,9.9-3.71,9.9-8.72,0-.21,0-.4-.02-.56h-10.16v-2.88h13.46c.05,.46,.12,1.21,.12,2.02Z"/>
        <path class="d" d="M74.76,3.59V12.55h11.65v3.2h-11.65v9.84h13.45v3.18h-16.65V.44h16.65V3.59h-13.45Z"/>
        <path class="d" d="M116.07,.37V29.21h-.16L96.49,7.65V28.81h-3.2V0h.18l19.41,21.55V.37h3.2Z"/>
        <path class="d" d="M122.04,.44h3.2V28.78h-3.2V.44Z"/>
        <path class="d" d="M129.73,14.62C129.73,6.59,136.28,.04,144.28,.04s14.57,6.56,14.57,14.59-6.56,14.52-14.59,14.52-14.54-6.54-14.54-14.52Zm25.89-.02c0-6.24-5.1-11.36-11.36-11.36s-11.3,5.12-11.3,11.36,5.08,11.3,11.3,11.3,11.36-5.08,11.36-11.3Z"/>
        <path class="d" d="M163.04,17.77V.44h3.22V17.75c0,4.76,3.09,8.23,7.28,8.23s7.28-3.48,7.28-8.23V.44h3.22V17.77c0,6.61-4.46,11.44-10.49,11.44s-10.49-4.83-10.49-11.44Z"/>
        <path class="d" d="M187.91,23.71l2.46-1.81c1.28,2.43,4.18,4.04,7.19,4.04,3.71,0,6.73-2,6.73-4.8,0-3.18-4.06-4.71-7.68-6.08-3.48-1.35-7.37-3.06-7.37-7.44S193.17,.02,198.14,.02c4.2,0,7.07,2.3,8.12,5.1l-2.41,1.62c-.91-2.13-3.2-3.57-5.75-3.57-3.04,0-5.64,2-5.64,4.54,0,2.74,3.11,3.74,6.77,5.15,4.25,1.72,8.28,3.69,8.28,8.24,0,4.89-4.52,8.07-9.97,8.07-4.66,0-8.28-2.43-9.63-5.45Z"/>
        <path class="d" d="M26.14,34.44l-12.9,28.78h-.39L0,34.44H3.39l9.63,21.96,9.67-21.96h3.45Z"/>
        <path class="d" d="M29.57,34.44h3.2v28.34h-3.2v-28.34Z"/>
        <path class="d" d="M36.95,57.71l2.46-1.81c1.28,2.43,4.18,4.04,7.19,4.04,3.71,0,6.73-2,6.73-4.8,0-3.18-4.06-4.71-7.68-6.08-3.48-1.35-7.37-3.06-7.37-7.44s3.92-7.61,8.89-7.61c4.2,0,7.07,2.3,8.12,5.1l-2.41,1.62c-.91-2.13-3.2-3.57-5.75-3.57-3.04,0-5.64,2-5.64,4.54,0,2.74,3.11,3.74,6.77,5.15,4.25,1.72,8.28,3.69,8.28,8.24,0,4.89-4.52,8.07-9.97,8.07-4.66,0-8.28-2.43-9.63-5.45Z"/>
        <path class="d" d="M60.73,34.44h3.2v28.34h-3.2v-28.34Z"/>
        <path class="d" d="M68.41,48.62c0-8.03,6.56-14.59,14.55-14.59s14.57,6.56,14.57,14.59-6.56,14.52-14.59,14.52-14.54-6.54-14.54-14.52Zm25.89-.02c0-6.24-5.1-11.36-11.36-11.36s-11.3,5.12-11.3,11.36,5.08,11.3,11.3,11.3,11.36-5.08,11.36-11.3Z"/>
        <path class="d" d="M124.8,34.37v28.85h-.16l-19.42-21.57v21.16h-3.2v-28.81h.18l19.41,21.55v-21.18h3.2Z"/>
      </g>
      <circle class="d" cx="144.29" cy="14.53" r="7"/>
      <circle class="d" cx="83.29" cy="48.53" r="7"/>
    </g>
  </g>
</svg>